<?xml version="1.0" standalone="no"?>
<!DOCTYPE svg PUBLIC "-//W3C//DTD SVG 20010904//EN"
 "http://www.w3.org/TR/2001/REC-SVG-20010904/DTD/svg10.dtd">
<svg version="1.0" xmlns="http://www.w3.org/2000/svg"
 width="102.000000pt" height="102.000000pt" viewBox="0 0 102.000000 102.000000"
 preserveAspectRatio="xMidYMid meet">
<metadata>
Created by potrace 1.14, written by Peter Selinger 2001-2017
</metadata>
<g transform="translate(0.000000,102.000000) scale(0.100000,-0.100000)"
fill="#000000" stroke="none">
<path d="M359 938 c0 -7 -2 -23 -3 -34 -4 -32 13 -69 25 -57 13 13 18 64 7 86
-10 20 -28 23 -29 5z"/>
<path d="M142 847 c-17 -20 52 -87 70 -69 10 10 5 20 -23 48 -29 29 -38 33
-47 21z"/>
<path d="M560 825 c-27 -28 -31 -38 -22 -47 10 -10 20 -5 48 23 29 29 33 38
21 47 -11 9 -21 4 -47 -23z"/>
<path d="M315 807 c-143 -47 -186 -237 -76 -335 131 -119 335 -27 333 149 0
48 -27 113 -58 140 -52 46 -140 66 -199 46z m139 -50 c57 -32 91 -100 81 -163
-19 -131 -183 -185 -276 -90 -130 133 34 345 195 253z"/>
<path d="M48 623 c-14 -17 8 -25 58 -21 26 2 39 8 39 18 0 18 -81 21 -97 3z"/>
<path d="M618 632 c-10 -2 -18 -10 -18 -18 0 -10 13 -14 49 -14 50 0 66 8 53
25 -7 10 -54 14 -84 7z"/>
<path d="M160 425 c-29 -30 -31 -35 -16 -41 19 -7 76 40 76 63 0 23 -25 14
-60 -22z"/>
<path d="M530 448 c0 -16 51 -68 67 -68 22 0 15 25 -15 53 -30 29 -52 35 -52
15z"/>
<path d="M358 383 c-4 -66 1 -92 23 -122 26 -35 52 -45 161 -62 73 -11 77 -13
83 -40 10 -44 55 -75 118 -83 44 -6 56 -11 60 -28 8 -28 31 -17 37 18 5 26 8
29 40 26 19 -2 42 -5 52 -7 20 -4 34 13 21 26 -7 7 -50 16 -90 18 -14 1 -17
32 -7 68 5 20 11 22 43 17 20 -3 38 -8 40 -10 7 -7 41 17 36 26 -3 5 -28 12
-55 16 -49 6 -50 8 -50 40 0 39 -15 52 -31 26 -10 -15 -19 -17 -57 -12 -73 12
-118 -4 -146 -51 -10 -16 -20 -28 -24 -25 -4 2 -29 7 -57 10 -115 15 -132 22
-154 64 -7 13 -12 38 -11 55 3 50 1 57 -15 57 -9 0 -16 -10 -17 -27z m434
-119 c32 -6 37 -10 33 -28 -2 -11 -7 -43 -10 -70 -3 -27 -8 -53 -10 -56 -6
-10 -107 9 -124 23 -26 22 -32 57 -15 92 20 43 48 52 126 39z"/>
</g>
</svg>
